#!OML:ASF F:\VICON\USERDATA\INSTALL\rory3\rory3.ASF
:FULLY-SPECIFIED
:DEGREES
4768
root -9.48244 18.2141 8.30745 1259 7.1334 175.971
lowerback 10.557 1.40094 0.423671
upperback 2.09666 2.06841 -0.291953
thorax -3.70457 1.09302 -0.826052
lowerneck -12.9812 -3.11173 -10.2699
upperneck 44.1432 6.5557 -0.143105
head 18.9861 3.01369 3.76742
rclavicle -2.8128e-014 5.56597e-015
rhumerus -38.4251 -12.5377 -79.6738
rradius 35.1625
rwrist 3.99598
rhand -14.5561 5.14346
rfingers 7.12502
rthumb 11.5929 -24.5159
lclavicle -2.8128e-014 5.56597e-015
lhumerus -36.8142 9.0359 81.7382
lradius 40.6857
lwrist -1.06336
lhand -20.2023 28.3253
lfingers 7.12502
lthumb 6.14451 58.2162
rfemur -7.54083 -0.396339 22.0826
rtibia 29.3409
rfoot -11.2265 -4.58319
rtoes 1.0071
lfemur -11.3474 -3.49553 -18.8708
ltibia 43.198
lfoot -6.40537 -6.95375
ltoes -18.4519
4769
root -9.50868 18.2205 8.37861 1259.01 6.6962 175.837
lowerback 10.4244 1.32561 0.206139
upperback 2.02748 1.93655 -0.323302
thorax -3.71113 1.02703 -0.715832
lowerneck -12.874 -3.1131 -10.2143
upperneck 44.196 6.63929 -0.240884
head 18.9965 3.06145 3.73139
rclavicle -1.80894e-014 -8.74653e-015
rhumerus -38.7257 -12.4041 -79.7
rradius 35.0323
rwrist 3.83856
rhand -14.4691 4.83302
rfingers 7.12502
rthumb 11.6768 -24.8216
lclavicle -1.80894e-014 -8.74653e-015
lhumerus -36.7734 8.84073 81.7601
lradius 40.7576
lwrist -1.10527
lhand -20.2356 28.2246
lfingers 7.12502
lthumb 6.11233 58.1164
rfemur -7.75014 -0.467814 21.8936
rtibia 29.232
rfoot -11.1129 -4.88897
rtoes 0.786
lfemur -10.8369 -3.38588 -18.8875
ltibia 43.5215
lfoot -6.04877 -7.27705
ltoes -18.582
4770
root -9.53736 18.2242 8.44899 1259.03 6.2883 175.838
lowerback 10.2731 1.25485 0.164665
upperback 2.00159 1.83433 -0.325778
thorax -3.65677 0.975546 -0.677508
lowerneck -12.709 -3.09086 -10.2103
upperneck 44.0355 6.62787 -0.300894
head 18.8516 3.06218 3.68183
rclavicle -3.8763e-015 -3.81667e-014
rhumerus -39.0358 -12.4099 -79.6569
rradius 35.0068
rwrist 3.7124
rhand -14.2869 4.89592
rfingers 7.12502
rthumb 11.8525 -24.7486
lclavicle -3.8763e-015 -3.81667e-014
lhumerus -36.7407 8.67608 81.8234
lradius 41.0016
lwrist -1.10539
lhand -20.1521 28.2477
lfingers 7.12502
lthumb 6.19297 58.1372
rfemur -7.94728 -0.524276 21.8373
rtibia 29.1298
rfoot -11.0709 -5.18532
rtoes 0.67099
lfemur -10.2718 -3.35032 -18.7652
ltibia 43.7692
lfoot -5.53009 -7.59894
ltoes -17.8364
4771
root -9.56791 18.2266 8.52043 1258.94 5.91471 175.764
lowerback 10.1801 1.19765 0.0210762
upperback 2.0831 1.74901 -0.324968
thorax -3.52572 0.937831 -0.580878
lowerneck -12.7669 -3.11718 -10.3264
upperneck 44.0123 6.56528 -0.20296
head 18.8474 3.02635 3.737
rclavicle 6.06293e-015 1.03368e-014
rhumerus -39.1198 -12.645 -79.5327
rradius 34.8485
rwrist 3.89421
rhand -14.0727 5.01488
rfingers 7.12502
rthumb 12.059 -24.6177
lclavicle 6.06293e-015 1.03368e-014
lhumerus -36.4812 8.52261 81.9522
lradius 41.1691
lwrist -1.05072
lhand -19.9457 28.5406
lfingers 7.12502
lthumb 6.39225 58.4242
rfemur -8.008 -0.603027 21.6809
rtibia 28.9935
rfoot -11.0977 -5.36907
rtoes 1.13349
lfemur -9.60732 -3.33353 -18.7521
ltibia 43.989
lfoot -5.05304 -7.93467
ltoes -17.3565
4772
root -9.59451 18.2288 8.59893 1258.89 5.54563 175.791
lowerback 10.1409 1.1186 -0.0929863
upperback 2.10243 1.63507 -0.28671
thorax -3.48914 0.883329 -0.46104
lowerneck -12.8564 -3.16562 -10.3812
upperneck 44.1935 6.60049 -0.164204
head 18.9871 3.03831 3.79268
rclavicle -1.09332e-015 2.38542e-015
rhumerus -39.2132 -12.6319 -79.5279
rradius 34.7004
rwrist 3.90181
rhand -13.8877 4.93112
rfingers 7.12502
rthumb 12.2374 -24.6909
lclavicle -1.09332e-015 2.38542e-015
lhumerus -36.2669 8.39041 82.0228
lradius 41.2778
lwrist -0.975266
lhand -19.9967 28.6931
lfingers 7.12502
lthumb 6.34298 58.5781
rfemur -8.10743 -0.559442 21.6782
rtibia 28.8042
rfoot -10.9283 -5.73959
rtoes 1.63867
lfemur -9.04756 -3.26716 -18.5939
ltibia 44.1776
lfoot -4.54715 -8.25834
ltoes -16.9205
4773
root -9.62132 18.2292 8.67887 1258.83 5.0882 175.944
lowerback 10.2054 1.00434 -0.0540634
upperback 2.0742 1.48877 -0.232338
thorax -3.5555 0.81014 -0.409566
lowerneck -12.8055 -3.17841 -10.3903
upperneck 44.2542 6.62187 -0.148994
head 19.0111 3.05716 3.81139
rclavicle -2.78299e-015 8.74653e-015
rhumerus -39.4324 -12.5347 -79.5663
rradius 34.569
rwrist 4.00093
rhand -14.0554 4.85186
rfingers 7.12502
rthumb 12.0757 -24.7797
lclavicle -2.78299e-015 8.74653e-015
lhumerus -36.0881 8.3055 82.0501
lradius 41.3049
lwrist -0.903036
lhand -20.1736 28.3964
lfingers 7.12502
lthumb 6.17224 58.2865
rfemur -8.18358 -0.588379 21.8197
rtibia 28.6141
rfoot -10.6534 -6.16987
rtoes 1.42152
lfemur -8.46584 -3.20716 -18.2757
ltibia 44.2943
lfoot -3.8812 -8.69361
ltoes -16.5781
4774
root -9.65142 18.2308 8.75478 1258.75 4.67964 175.976
lowerback 10.1762 0.914791 -0.10355
upperback 2.10375 1.36801 -0.216078
thorax -3.51081 0.752076 -0.348144
lowerneck -12.7847 -3.20049 -10.5354
upperneck 44.2514 6.54701 0.0192924
head 18.9928 3.0263 3.90243
rclavicle -6.26172e-015 2.62396e-014
rhumerus -39.6094 -12.5388 -79.5589
rradius 34.3577
rwrist 4.43873
rhand -14.5619 5.08387
rfingers 7.12502
rthumb 11.5873 -24.5758
lclavicle -6.26172e-015 2.62396e-014
lhumerus -35.8422 8.25285 82.0529
lradius 41.3743
lwrist -1.06331
lhand -19.4467 28.5552
lfingers 7.12502
lthumb 6.87396 58.4236
rfemur -8.29527 -0.813467 21.7813
rtibia 28.4514
rfoot -10.3649 -6.37725
rtoes 0.596019
lfemur -7.82054 -3.22499 -18.1465
ltibia 44.3181
lfoot -3.12371 -9.05022
ltoes -16.4773
4775
root -9.68292 18.234 8.83051 1258.71 4.3642 175.812
lowerback 10.0866 0.890664 -0.342066
upperback 2.12049 1.31073 -0.2525
thorax -3.44825 0.726289 -0.242288
lowerneck -12.7453 -3.2437 -10.6145
upperneck 44.3022 6.51916 0.0724214
head 19.0138 3.01709 3.94202
rclavicle -4.57205e-015 1.82882e-014
rhumerus -39.767 -12.5713 -79.5553
rradius 34.1766
rwrist 4.61292
rhand -14.9649 5.17801
rfingers 7.12502
rthumb 11.1986 -24.5031
lclavicle -4.57205e-015 1.82882e-014
lhumerus -35.6613 8.1277 82.0917
lradius 41.5446
lwrist -1.30694
lhand -18.6418 29.0469
lfingers 7.12502
lthumb 7.65087 58.8886
rfemur -8.48619 -1.01189 21.5048
rtibia 28.3517
rfoot -10.0863 -6.50594
rtoes 0.175632
lfemur -7.16517 -3.18054 -18.2731
ltibia 44.2122
lfoot -2.48495 -9.20736
ltoes -17.6775
4776
root -9.7173 18.2319 8.90847 1258.66 3.97489 175.718
lowerback 10.0235 0.828357 -0.483068
upperback 2.13603 1.21449 -0.263822
thorax -3.39974 0.680341 -0.160973
lowerneck -12.6804 -3.25339 -10.562
upperneck 44.3055 6.58413 -0.0658777
head 19.008 3.04592 3.8798
rclavicle -1.37161e-014 -1.82882e-014
rhumerus -39.8723 -12.7089 -79.4764
rradius 34.0102
rwrist 4.74036
rhand -14.9822 5.09149
rfingers 7.12502
rthumb 11.1819 -24.5905
lclavicle -1.37161e-014 -1.82882e-014
lhumerus -35.4343 8.08391 82.1874
lradius 41.629
lwrist -1.37264
lhand -19.3378 28.6965
lfingers 7.12502
lthumb 6.97912 58.5615
rfemur -8.65285 -1.16282 21.2961
rtibia 28.3126
rfoot -9.9956 -6.71819
rtoes -0.148938
lfemur -6.48895 -3.14456 -18.3218
ltibia 44.007
lfoot -1.76678 -9.47299
ltoes -17.6595
4777
root -9.75285 18.2295 8.98358 1258.56 3.58633 175.597
lowerback 9.98013 0.763762 -0.634885
upperback 2.17629 1.11585 -0.305016
thorax -3.33559 0.634221 -0.104522
lowerneck -12.616 -3.27894 -10.4268
upperneck 44.3141 6.5906 -0.205752
head 19.0098 3.06354 3.79193
rclavicle -3.67752e-015 1.27222e-014
rhumerus -40.044 -12.8418 -79.3975
rradius 33.8971
rwrist 4.85752
rhand -14.9038 5.17514
rfingers 7.12502
rthumb 11.2575 -24.5028
lclavicle -3.67752e-015 1.27222e-014
lhumerus -35.1689 7.98715 82.2272
lradius 41.6432
lwrist -1.56398
lhand -20.114 28.4225
lfingers 7.12502
lthumb 6.22979 58.3109
rfemur -8.73592 -1.25669 21.0488
rtibia 28.2866
rfoot -10.2077 -6.94765
rtoes -0.133911
lfemur -5.74068 -3.16873 -18.4202
ltibia 43.754
lfoot -0.964018 -9.91745
ltoes -16.7468
4778
root -9.78658 18.2264 9.06504 1258.52 3.23582 175.598
lowerback 9.98404 0.724498 -0.710043
upperback 2.14853 1.05424 -0.309372
thorax -3.36752 0.603803 -0.059309
lowerneck -12.4196 -3.31869 -10.3387
upperneck 44.2909 6.54633 -0.296382
head 18.9527 3.06862 3.71998
rclavicle 5.76476e-015 5.96354e-015
rhumerus -40.281 -12.9631 -79.3372
rradius 33.8246
rwrist 4.78286
rhand -14.9846 5.09794
rfingers 7.12502
rthumb 11.1796 -24.5842
lclavicle 5.76476e-015 5.96354e-015
lhumerus -35.0039 7.68246 82.3226
lradius 41.7479
lwrist -1.48242
lhand -20.0107 28.417
lfingers 7.12502
lthumb 6.32944 58.3024
rfemur -8.93951 -1.29848 20.9482
rtibia 28.2595
rfoot -10.304 -7.19219
rtoes 0.451906
lfemur -5.1186 -3.20702 -18.353
ltibia 43.4863
lfoot -0.165777 -10.5232
ltoes -16.5662
